<?xml version="1.0" encoding="UTF-8" standalone="no"?>
<svg
   xmlns:dc="http://purl.org/dc/elements/1.1/"
   xmlns:cc="http://creativecommons.org/ns#"
   xmlns:rdf="http://www.w3.org/1999/02/22-rdf-syntax-ns#"
   xmlns:svg="http://www.w3.org/2000/svg"
   xmlns="http://www.w3.org/2000/svg"
   xmlns:sodipodi="http://sodipodi.sourceforge.net/DTD/sodipodi-0.dtd"
   xmlns:inkscape="http://www.inkscape.org/namespaces/inkscape"
   inkscape:version="1.0 (4035a4fb49, 2020-05-01)"
   sodipodi:docname="hand-left-numbered.svg"
   id="svg6"
   version="1.1"
   viewBox="0 0 512 512"
   height="800px"
   width="800px"
   fill="#000000">
  <metadata
     id="metadata12">
    <rdf:RDF>
      <cc:Work
         rdf:about="">
        <dc:format>image/svg+xml</dc:format>
        <dc:type
           rdf:resource="http://purl.org/dc/dcmitype/StillImage" />
      </cc:Work>
    </rdf:RDF>
  </metadata>
  <defs
     id="defs10" />
  <sodipodi:namedview
     inkscape:current-layer="svg6"
     inkscape:window-maximized="1"
     inkscape:window-y="-6"
     inkscape:window-x="-6"
     inkscape:cy="290.61224"
     inkscape:cx="168.16327"
     inkscape:zoom="0.6125"
     showgrid="false"
     id="namedview8"
     inkscape:window-height="658"
     inkscape:window-width="1280"
     inkscape:pageshadow="2"
     inkscape:pageopacity="0"
     guidetolerance="10"
     gridtolerance="10"
     objecttolerance="10"
     borderopacity="1"
     bordercolor="#666666"
     pagecolor="#ffffff" />
  <title
     id="title2">ionicons-v5-i</title>
  <path
     id="path4"
     d="M432.8,211.44h0c-15.52-8.82-34.91-2.28-43.31,13.68l-41.38,84.41a7,7,0,0,1-8.93,3.43h0a7,7,0,0,1-4.41-6.52V72c0-13.91-12.85-24-26.77-24s-26,10.09-26,24V228.64A11.24,11.24,0,0,1,271.21,240,11,11,0,0,1,260,229V24c0-13.91-10.94-24-24.86-24S210,10.09,210,24V228.64A11.24,11.24,0,0,1,199.21,240,11,11,0,0,1,188,229V56c0-13.91-12.08-24-26-24s-26,11.09-26,25V244.64A11.24,11.24,0,0,1,125.21,256,11,11,0,0,1,114,245V120c0-13.91-11.08-24-25-24s-25.12,10.22-25,24V336c0,117.41,72,176,160,176h16c88,0,115.71-39.6,136-88l68.71-169C451.33,237,448.31,220.25,432.8,211.44Z" />
  <circle
     r="29.873615"
     cy="238.75919"
     cx="417.43671"
     id="path14"
     style="fill:#fffff6;stroke:#000000;stroke-width:2.23085" />
  <text
     id="text20"
     y="248.09668"
     x="408.92419"
     style="font-style:normal;font-weight:normal;font-size:25.6px;line-height:1.25;font-family:sans-serif;fill:#000000;fill-opacity:1;stroke:none;stroke-width:0.64"
     xml:space="preserve"><tspan
       style="stroke-width:0.64"
       y="248.09668"
       x="408.92419"
       id="tspan18"
       sodipodi:role="line">1</tspan></text>
  <circle
     style="fill:#fffff6;stroke:#000000;stroke-width:1.77953"
     id="path14-0"
     cx="308.2449"
     cy="75.232658"
     r="23.829889" />
  <text
     xml:space="preserve"
     style="font-style:normal;font-weight:normal;font-size:25.6px;line-height:1.25;font-family:sans-serif;fill:#000000;fill-opacity:1;stroke:none;stroke-width:0.64"
     x="299.9324"
     y="84.732658"
     id="text20-6"><tspan
       sodipodi:role="line"
       id="tspan18-7"
       x="299.9324"
       y="84.732658"
       style="stroke-width:0.64">2</tspan></text>
  <circle
     r="23.829889"
     cy="26.12245"
     cx="235.10204"
     id="path14-0-1"
     style="fill:#fffff6;stroke:#000000;stroke-width:1.77953" />
  <text
     id="text20-6-9"
     y="35.622452"
     x="226.78954"
     style="font-style:normal;font-weight:normal;font-size:25.6px;line-height:1.25;font-family:sans-serif;fill:#000000;fill-opacity:1;stroke:none;stroke-width:0.64"
     xml:space="preserve"><tspan
       style="stroke-width:0.64"
       y="35.622452"
       x="226.78954"
       id="tspan18-7-0"
       sodipodi:role="line">3</tspan></text>
  <circle
     r="23.829889"
     cy="58.279182"
     cx="161.95918"
     id="path14-0-0"
     style="fill:#fffff6;stroke:#000000;stroke-width:1.77953" />
  <text
     id="text20-6-7"
     y="67.779182"
     x="153.64668"
     style="font-style:normal;font-weight:normal;font-size:25.6px;line-height:1.25;font-family:sans-serif;fill:#000000;fill-opacity:1;stroke:none;stroke-width:0.64"
     xml:space="preserve"><tspan
       style="stroke-width:0.64"
       y="67.779182"
       x="153.64668"
       id="tspan18-7-4"
       sodipodi:role="line">4</tspan></text>
  <circle
     r="23.829889"
     cy="122.01796"
     cx="89.05143"
     id="path14-0-8"
     style="fill:#fffff6;stroke:#000000;stroke-width:1.77953" />
  <text
     id="text20-6-3"
     y="131.51796"
     x="80.73893"
     style="font-style:normal;font-weight:normal;font-size:25.6px;line-height:1.25;font-family:sans-serif;fill:#000000;fill-opacity:1;stroke:none;stroke-width:0.64"
     xml:space="preserve"><tspan
       style="stroke-width:0.64"
       y="131.51796"
       x="80.73893"
       id="tspan18-7-9"
       sodipodi:role="line">5</tspan></text>
</svg>
